<mxfile host="app.diagrams.net" agent="Mozilla/5.0 (Windows NT 10.0; Win64; x64) AppleWebKit/537.36 (KHTML, like Gecko) Chrome/141.0.0.0 Safari/537.36" version="28.2.5">
  <diagram name="1 oldal" id="1g-ylF57W1tydHr8uUqX">
    <mxGraphModel dx="4338" dy="1727" grid="1" gridSize="10" guides="1" tooltips="1" connect="1" arrows="1" fold="1" page="1" pageScale="1" pageWidth="1169" pageHeight="827" math="0" shadow="0">
      <root>
        <mxCell id="0" />
        <mxCell id="1" parent="0" />
        <mxCell id="V39KNzuskqh0MxV-qXIf-1" value="FXVAUU_Vendeglatas" style="ellipse;whiteSpace=wrap;html=1;" vertex="1" parent="1">
          <mxGeometry x="519" y="450" width="171" height="100" as="geometry" />
        </mxCell>
        <mxCell id="V39KNzuskqh0MxV-qXIf-14" value="nev" style="ellipse;whiteSpace=wrap;html=1;" vertex="1" parent="1">
          <mxGeometry x="-850" y="835" width="100" height="60" as="geometry" />
        </mxCell>
        <mxCell id="V39KNzuskqh0MxV-qXIf-15" value="cim" style="ellipse;whiteSpace=wrap;html=1;" vertex="1" parent="1">
          <mxGeometry x="-600" y="831.5" width="100" height="67" as="geometry" />
        </mxCell>
        <mxCell id="V39KNzuskqh0MxV-qXIf-16" value="csillag" style="ellipse;whiteSpace=wrap;html=1;" vertex="1" parent="1">
          <mxGeometry x="-400" y="835" width="100" height="70" as="geometry" />
        </mxCell>
        <mxCell id="V39KNzuskqh0MxV-qXIf-17" value="" style="rounded=0;whiteSpace=wrap;html=1;direction=south;" vertex="1" parent="1">
          <mxGeometry x="-830" y="1030" width="60" height="120" as="geometry" />
        </mxCell>
        <mxCell id="V39KNzuskqh0MxV-qXIf-18" value="varos" style="ellipse;whiteSpace=wrap;html=1;" vertex="1" parent="1">
          <mxGeometry x="-740" y="990" width="100" height="67" as="geometry" />
        </mxCell>
        <mxCell id="V39KNzuskqh0MxV-qXIf-19" value="utca" style="ellipse;whiteSpace=wrap;html=1;" vertex="1" parent="1">
          <mxGeometry x="-610" y="990" width="100" height="67" as="geometry" />
        </mxCell>
        <mxCell id="V39KNzuskqh0MxV-qXIf-20" value="Hazszam" style="ellipse;whiteSpace=wrap;html=1;" vertex="1" parent="1">
          <mxGeometry x="-500" y="1000" width="100" height="67" as="geometry" />
        </mxCell>
        <mxCell id="V39KNzuskqh0MxV-qXIf-21" value="" style="rounded=0;whiteSpace=wrap;html=1;direction=south;" vertex="1" parent="1">
          <mxGeometry x="-360" y="1030" width="60" height="120" as="geometry" />
        </mxCell>
        <mxCell id="V39KNzuskqh0MxV-qXIf-22" value="" style="rounded=0;whiteSpace=wrap;html=1;direction=south;" vertex="1" parent="1">
          <mxGeometry x="-730" y="1210" width="60" height="120" as="geometry" />
        </mxCell>
        <mxCell id="V39KNzuskqh0MxV-qXIf-23" value="" style="rounded=0;whiteSpace=wrap;html=1;direction=south;" vertex="1" parent="1">
          <mxGeometry x="-600" y="1210" width="60" height="120" as="geometry" />
        </mxCell>
        <mxCell id="V39KNzuskqh0MxV-qXIf-24" value="" style="rounded=0;whiteSpace=wrap;html=1;direction=south;" vertex="1" parent="1">
          <mxGeometry x="-480" y="1210" width="60" height="120" as="geometry" />
        </mxCell>
        <mxCell id="V39KNzuskqh0MxV-qXIf-35" value="" style="group" vertex="1" connectable="0" parent="1">
          <mxGeometry x="-630" y="640" width="150" height="100" as="geometry" />
        </mxCell>
        <mxCell id="V39KNzuskqh0MxV-qXIf-34" value="" style="ellipse;whiteSpace=wrap;html=1;" vertex="1" parent="V39KNzuskqh0MxV-qXIf-35">
          <mxGeometry width="150" height="100" as="geometry" />
        </mxCell>
        <mxCell id="V39KNzuskqh0MxV-qXIf-31" value="Étterem" style="ellipse;whiteSpace=wrap;html=1;" vertex="1" parent="V39KNzuskqh0MxV-qXIf-35">
          <mxGeometry x="15" y="10" width="120" height="80" as="geometry" />
        </mxCell>
        <mxCell id="V39KNzuskqh0MxV-qXIf-36" value="" style="group" vertex="1" connectable="0" parent="1">
          <mxGeometry x="-200" y="640" width="150" height="100" as="geometry" />
        </mxCell>
        <mxCell id="V39KNzuskqh0MxV-qXIf-33" value="" style="ellipse;whiteSpace=wrap;html=1;" vertex="1" parent="V39KNzuskqh0MxV-qXIf-36">
          <mxGeometry width="150" height="100" as="geometry" />
        </mxCell>
        <mxCell id="V39KNzuskqh0MxV-qXIf-30" value="Főszakacs" style="ellipse;whiteSpace=wrap;html=1;" vertex="1" parent="V39KNzuskqh0MxV-qXIf-36">
          <mxGeometry x="15" y="10" width="120" height="80" as="geometry" />
        </mxCell>
        <mxCell id="V39KNzuskqh0MxV-qXIf-37" value="" style="group" vertex="1" connectable="0" parent="1">
          <mxGeometry x="250" y="640" width="150" height="100" as="geometry" />
        </mxCell>
        <mxCell id="V39KNzuskqh0MxV-qXIf-32" value="" style="ellipse;whiteSpace=wrap;html=1;" vertex="1" parent="V39KNzuskqh0MxV-qXIf-37">
          <mxGeometry width="150" height="100" as="geometry" />
        </mxCell>
        <mxCell id="V39KNzuskqh0MxV-qXIf-29" value="Szakacs&lt;span style=&quot;color: rgba(0, 0, 0, 0); font-family: monospace; font-size: 0px; text-align: start; text-wrap-mode: nowrap;&quot;&gt;%3CmxGraphModel%3E%3Croot%3E%3CmxCell%20id%3D%220%22%2F%3E%3CmxCell%20id%3D%221%22%20parent%3D%220%22%2F%3E%3CmxCell%20id%3D%222%22%20value%3D%22Gyakornok%22%20style%3D%22ellipse%3BwhiteSpace%3Dwrap%3Bhtml%3D1%3B%22%20vertex%3D%221%22%20parent%3D%221%22%3E%3CmxGeometry%20x%3D%22570%22%20y%3D%22650%22%20width%3D%22120%22%20height%3D%2280%22%20as%3D%22geometry%22%2F%3E%3C%2FmxCell%3E%3C%2Froot%3E%3C%2FmxGraphModel%3E&lt;/span&gt;" style="ellipse;whiteSpace=wrap;html=1;" vertex="1" parent="V39KNzuskqh0MxV-qXIf-37">
          <mxGeometry x="15" y="10" width="120" height="80" as="geometry" />
        </mxCell>
        <mxCell id="V39KNzuskqh0MxV-qXIf-38" value="" style="group" vertex="1" connectable="0" parent="1">
          <mxGeometry x="800" y="640" width="150" height="100" as="geometry" />
        </mxCell>
        <mxCell id="V39KNzuskqh0MxV-qXIf-28" value="" style="ellipse;whiteSpace=wrap;html=1;" vertex="1" parent="V39KNzuskqh0MxV-qXIf-38">
          <mxGeometry width="150" height="100" as="geometry" />
        </mxCell>
        <mxCell id="V39KNzuskqh0MxV-qXIf-27" value="Gyakornok" style="ellipse;whiteSpace=wrap;html=1;" vertex="1" parent="V39KNzuskqh0MxV-qXIf-38">
          <mxGeometry x="15" y="10" width="120" height="80" as="geometry" />
        </mxCell>
        <mxCell id="V39KNzuskqh0MxV-qXIf-39" value="" style="group" vertex="1" connectable="0" parent="1">
          <mxGeometry x="1250" y="640" width="150" height="100" as="geometry" />
        </mxCell>
        <mxCell id="V39KNzuskqh0MxV-qXIf-26" value="" style="ellipse;whiteSpace=wrap;html=1;" vertex="1" parent="V39KNzuskqh0MxV-qXIf-39">
          <mxGeometry width="150" height="100" as="geometry" />
        </mxCell>
        <mxCell id="V39KNzuskqh0MxV-qXIf-25" value="Vendeg" style="ellipse;whiteSpace=wrap;html=1;" vertex="1" parent="V39KNzuskqh0MxV-qXIf-39">
          <mxGeometry x="15" y="10" width="120" height="80" as="geometry" />
        </mxCell>
        <mxCell id="V39KNzuskqh0MxV-qXIf-40" value="" style="group" vertex="1" connectable="0" parent="1">
          <mxGeometry x="1730" y="640" width="150" height="100" as="geometry" />
        </mxCell>
        <mxCell id="V39KNzuskqh0MxV-qXIf-13" value="" style="ellipse;whiteSpace=wrap;html=1;" vertex="1" parent="V39KNzuskqh0MxV-qXIf-40">
          <mxGeometry width="150" height="100" as="geometry" />
        </mxCell>
        <mxCell id="V39KNzuskqh0MxV-qXIf-7" value="Rendeles" style="ellipse;whiteSpace=wrap;html=1;" vertex="1" parent="V39KNzuskqh0MxV-qXIf-40">
          <mxGeometry x="15" y="10" width="120" height="80" as="geometry" />
        </mxCell>
      </root>
    </mxGraphModel>
  </diagram>
</mxfile>
